<mxfile host="app.diagrams.net" agent="Mozilla/5.0 (Windows NT 10.0; Win64; x64) AppleWebKit/537.36 (KHTML, like Gecko) Chrome/127.0.0.0 Safari/537.36" version="24.7.6">
  <diagram name="PÃ¡gina-1" id="m194DB5OODm50t4TiOIn">
    <mxGraphModel dx="1914" dy="1018" grid="1" gridSize="10" guides="1" tooltips="1" connect="1" arrows="1" fold="1" page="1" pageScale="1" pageWidth="827" pageHeight="1169" math="0" shadow="0">
      <root>
        <mxCell id="0" />
        <mxCell id="1" parent="0" />
        <mxCell id="oNFGNhtA4SceddN9MFem-205" value="" style="group" parent="1" vertex="1" connectable="0">
          <mxGeometry x="40" y="410" width="1000" height="103" as="geometry" />
        </mxCell>
        <mxCell id="oNFGNhtA4SceddN9MFem-169" value="" style="group" parent="oNFGNhtA4SceddN9MFem-205" vertex="1" connectable="0">
          <mxGeometry y="30" width="1000" height="73" as="geometry" />
        </mxCell>
        <mxCell id="oNFGNhtA4SceddN9MFem-156" value="" style="group" parent="oNFGNhtA4SceddN9MFem-169" vertex="1" connectable="0">
          <mxGeometry width="200" height="43" as="geometry" />
        </mxCell>
        <mxCell id="oNFGNhtA4SceddN9MFem-154" value="" style="swimlane;startSize=0;" parent="oNFGNhtA4SceddN9MFem-156" vertex="1">
          <mxGeometry width="200" height="41.5" as="geometry" />
        </mxCell>
        <mxCell id="oNFGNhtA4SceddN9MFem-155" value="&lt;font style=&quot;font-size: 24px;&quot;&gt;codigo&lt;/font&gt;" style="text;html=1;align=center;verticalAlign=middle;resizable=0;points=[];autosize=1;strokeColor=none;fillColor=none;" parent="oNFGNhtA4SceddN9MFem-154" vertex="1">
          <mxGeometry x="55" y="1.5" width="90" height="40" as="geometry" />
        </mxCell>
        <mxCell id="oNFGNhtA4SceddN9MFem-186" value="&lt;font color=&quot;#014e66&quot; style=&quot;font-size: 24px;&quot;&gt;PK&lt;/font&gt;" style="text;html=1;align=center;verticalAlign=middle;whiteSpace=wrap;rounded=0;" parent="oNFGNhtA4SceddN9MFem-154" vertex="1">
          <mxGeometry x="-10" y="6.5" width="60" height="30" as="geometry" />
        </mxCell>
        <mxCell id="oNFGNhtA4SceddN9MFem-157" value="" style="group" parent="oNFGNhtA4SceddN9MFem-169" vertex="1" connectable="0">
          <mxGeometry x="200" width="200" height="43" as="geometry" />
        </mxCell>
        <mxCell id="oNFGNhtA4SceddN9MFem-158" value="" style="swimlane;startSize=0;" parent="oNFGNhtA4SceddN9MFem-157" vertex="1">
          <mxGeometry width="200" height="41.5" as="geometry">
            <mxRectangle width="50" height="40" as="alternateBounds" />
          </mxGeometry>
        </mxCell>
        <mxCell id="oNFGNhtA4SceddN9MFem-159" value="&lt;font style=&quot;font-size: 24px;&quot;&gt;horario&lt;/font&gt;" style="text;html=1;align=center;verticalAlign=middle;resizable=0;points=[];autosize=1;strokeColor=none;fillColor=none;" parent="oNFGNhtA4SceddN9MFem-158" vertex="1">
          <mxGeometry x="50" y="1.5" width="100" height="40" as="geometry" />
        </mxCell>
        <mxCell id="DOF1BjW3caJsl0741FP9-13" value="" style="group" vertex="1" connectable="0" parent="oNFGNhtA4SceddN9MFem-169">
          <mxGeometry x="400" y="-0.75" width="200" height="43" as="geometry" />
        </mxCell>
        <mxCell id="DOF1BjW3caJsl0741FP9-14" value="" style="swimlane;startSize=0;" vertex="1" parent="DOF1BjW3caJsl0741FP9-13">
          <mxGeometry width="200" height="41.5" as="geometry">
            <mxRectangle width="50" height="40" as="alternateBounds" />
          </mxGeometry>
        </mxCell>
        <mxCell id="DOF1BjW3caJsl0741FP9-15" value="&lt;span style=&quot;font-size: 24px;&quot;&gt;semestre&lt;/span&gt;" style="text;html=1;align=center;verticalAlign=middle;resizable=0;points=[];autosize=1;strokeColor=none;fillColor=none;" vertex="1" parent="DOF1BjW3caJsl0741FP9-14">
          <mxGeometry x="40" y="1.5" width="120" height="40" as="geometry" />
        </mxCell>
        <mxCell id="DOF1BjW3caJsl0741FP9-56" value="" style="group" vertex="1" connectable="0" parent="oNFGNhtA4SceddN9MFem-169">
          <mxGeometry x="599" y="-0.75" width="280" height="43" as="geometry" />
        </mxCell>
        <mxCell id="DOF1BjW3caJsl0741FP9-57" value="" style="swimlane;startSize=0;" vertex="1" parent="DOF1BjW3caJsl0741FP9-56">
          <mxGeometry width="280" height="41.5" as="geometry">
            <mxRectangle width="50" height="40" as="alternateBounds" />
          </mxGeometry>
        </mxCell>
        <mxCell id="DOF1BjW3caJsl0741FP9-58" value="&lt;span style=&quot;font-size: 24px;&quot;&gt;codigo_disciplina&lt;/span&gt;" style="text;html=1;align=center;verticalAlign=middle;resizable=0;points=[];autosize=1;strokeColor=none;fillColor=none;" vertex="1" parent="DOF1BjW3caJsl0741FP9-57">
          <mxGeometry x="56" y="1" width="210" height="40" as="geometry" />
        </mxCell>
        <mxCell id="oNFGNhtA4SceddN9MFem-204" value="&lt;b&gt;Turma&lt;/b&gt;" style="text;html=1;align=left;verticalAlign=middle;whiteSpace=wrap;rounded=0;" parent="oNFGNhtA4SceddN9MFem-205" vertex="1">
          <mxGeometry width="110" height="30" as="geometry" />
        </mxCell>
        <mxCell id="oNFGNhtA4SceddN9MFem-207" value="" style="group" parent="1" vertex="1" connectable="0">
          <mxGeometry x="40" y="530" width="1000" height="73" as="geometry" />
        </mxCell>
        <mxCell id="oNFGNhtA4SceddN9MFem-208" value="" style="group" parent="oNFGNhtA4SceddN9MFem-207" vertex="1" connectable="0">
          <mxGeometry y="30" width="1000" height="43" as="geometry" />
        </mxCell>
        <mxCell id="oNFGNhtA4SceddN9MFem-209" value="" style="group" parent="oNFGNhtA4SceddN9MFem-208" vertex="1" connectable="0">
          <mxGeometry width="200" height="43" as="geometry" />
        </mxCell>
        <mxCell id="oNFGNhtA4SceddN9MFem-210" value="" style="swimlane;startSize=0;" parent="oNFGNhtA4SceddN9MFem-209" vertex="1">
          <mxGeometry width="200" height="41.5" as="geometry" />
        </mxCell>
        <mxCell id="oNFGNhtA4SceddN9MFem-211" value="&lt;font style=&quot;font-size: 24px;&quot;&gt;siape&lt;/font&gt;" style="text;html=1;align=center;verticalAlign=middle;resizable=0;points=[];autosize=1;strokeColor=none;fillColor=none;" parent="oNFGNhtA4SceddN9MFem-210" vertex="1">
          <mxGeometry x="60" y="1.5" width="80" height="40" as="geometry" />
        </mxCell>
        <mxCell id="oNFGNhtA4SceddN9MFem-212" value="&lt;font color=&quot;#014e66&quot; style=&quot;font-size: 24px;&quot;&gt;PK&lt;/font&gt;" style="text;html=1;align=center;verticalAlign=middle;whiteSpace=wrap;rounded=0;" parent="oNFGNhtA4SceddN9MFem-210" vertex="1">
          <mxGeometry x="-10" y="6.5" width="60" height="30" as="geometry" />
        </mxCell>
        <mxCell id="oNFGNhtA4SceddN9MFem-213" value="" style="group" parent="oNFGNhtA4SceddN9MFem-208" vertex="1" connectable="0">
          <mxGeometry x="200" width="200" height="43" as="geometry" />
        </mxCell>
        <mxCell id="oNFGNhtA4SceddN9MFem-214" value="" style="swimlane;startSize=0;" parent="oNFGNhtA4SceddN9MFem-213" vertex="1">
          <mxGeometry width="200" height="41.5" as="geometry">
            <mxRectangle width="50" height="40" as="alternateBounds" />
          </mxGeometry>
        </mxCell>
        <mxCell id="oNFGNhtA4SceddN9MFem-215" value="&lt;font style=&quot;font-size: 24px;&quot;&gt;nome&lt;/font&gt;" style="text;html=1;align=center;verticalAlign=middle;resizable=0;points=[];autosize=1;strokeColor=none;fillColor=none;" parent="oNFGNhtA4SceddN9MFem-214" vertex="1">
          <mxGeometry x="60" y="1.5" width="80" height="40" as="geometry" />
        </mxCell>
        <mxCell id="oNFGNhtA4SceddN9MFem-216" value="" style="group" parent="oNFGNhtA4SceddN9MFem-208" vertex="1" connectable="0">
          <mxGeometry x="400" width="200" height="43" as="geometry" />
        </mxCell>
        <mxCell id="oNFGNhtA4SceddN9MFem-217" value="" style="swimlane;startSize=0;" parent="oNFGNhtA4SceddN9MFem-216" vertex="1">
          <mxGeometry width="200" height="41.5" as="geometry" />
        </mxCell>
        <mxCell id="oNFGNhtA4SceddN9MFem-218" value="&lt;span style=&quot;font-size: 24px;&quot;&gt;email&lt;/span&gt;" style="text;html=1;align=center;verticalAlign=middle;resizable=0;points=[];autosize=1;strokeColor=none;fillColor=none;" parent="oNFGNhtA4SceddN9MFem-217" vertex="1">
          <mxGeometry x="60" y="1.5" width="80" height="40" as="geometry" />
        </mxCell>
        <mxCell id="DOF1BjW3caJsl0741FP9-23" value="" style="group" vertex="1" connectable="0" parent="oNFGNhtA4SceddN9MFem-208">
          <mxGeometry x="600" width="200" height="43" as="geometry" />
        </mxCell>
        <mxCell id="DOF1BjW3caJsl0741FP9-24" value="" style="swimlane;startSize=0;" vertex="1" parent="DOF1BjW3caJsl0741FP9-23">
          <mxGeometry width="200" height="41.5" as="geometry" />
        </mxCell>
        <mxCell id="DOF1BjW3caJsl0741FP9-25" value="&lt;span style=&quot;font-size: 24px;&quot;&gt;endereco&lt;/span&gt;" style="text;html=1;align=center;verticalAlign=middle;resizable=0;points=[];autosize=1;strokeColor=none;fillColor=none;" vertex="1" parent="DOF1BjW3caJsl0741FP9-24">
          <mxGeometry x="40" y="1.5" width="120" height="40" as="geometry" />
        </mxCell>
        <mxCell id="DOF1BjW3caJsl0741FP9-26" value="" style="group" vertex="1" connectable="0" parent="oNFGNhtA4SceddN9MFem-208">
          <mxGeometry x="800" width="200" height="43" as="geometry" />
        </mxCell>
        <mxCell id="DOF1BjW3caJsl0741FP9-27" value="" style="swimlane;startSize=0;" vertex="1" parent="DOF1BjW3caJsl0741FP9-26">
          <mxGeometry width="200" height="41.5" as="geometry" />
        </mxCell>
        <mxCell id="DOF1BjW3caJsl0741FP9-28" value="&lt;span style=&quot;font-size: 24px;&quot;&gt;cpf&lt;/span&gt;" style="text;html=1;align=center;verticalAlign=middle;resizable=0;points=[];autosize=1;strokeColor=none;fillColor=none;" vertex="1" parent="DOF1BjW3caJsl0741FP9-27">
          <mxGeometry x="70" y="1.5" width="60" height="40" as="geometry" />
        </mxCell>
        <mxCell id="oNFGNhtA4SceddN9MFem-225" value="&lt;b&gt;Professor&lt;/b&gt;" style="text;html=1;align=left;verticalAlign=middle;whiteSpace=wrap;rounded=0;" parent="oNFGNhtA4SceddN9MFem-207" vertex="1">
          <mxGeometry width="110" height="30" as="geometry" />
        </mxCell>
        <mxCell id="oNFGNhtA4SceddN9MFem-226" value="" style="group" parent="1" vertex="1" connectable="0">
          <mxGeometry x="40" y="650" width="1050" height="73" as="geometry" />
        </mxCell>
        <mxCell id="oNFGNhtA4SceddN9MFem-227" value="" style="group" parent="oNFGNhtA4SceddN9MFem-226" vertex="1" connectable="0">
          <mxGeometry y="30" width="1050" height="43" as="geometry" />
        </mxCell>
        <mxCell id="oNFGNhtA4SceddN9MFem-228" value="" style="group" parent="oNFGNhtA4SceddN9MFem-227" vertex="1" connectable="0">
          <mxGeometry width="200" height="43" as="geometry" />
        </mxCell>
        <mxCell id="oNFGNhtA4SceddN9MFem-229" value="" style="swimlane;startSize=0;" parent="oNFGNhtA4SceddN9MFem-228" vertex="1">
          <mxGeometry width="200" height="41.5" as="geometry" />
        </mxCell>
        <mxCell id="oNFGNhtA4SceddN9MFem-230" value="&lt;font style=&quot;font-size: 24px;&quot;&gt;codigo&lt;/font&gt;" style="text;html=1;align=center;verticalAlign=middle;resizable=0;points=[];autosize=1;strokeColor=none;fillColor=none;" parent="oNFGNhtA4SceddN9MFem-229" vertex="1">
          <mxGeometry x="55" y="1.5" width="90" height="40" as="geometry" />
        </mxCell>
        <mxCell id="oNFGNhtA4SceddN9MFem-231" value="&lt;font color=&quot;#014e66&quot; style=&quot;font-size: 24px;&quot;&gt;PK&lt;/font&gt;" style="text;html=1;align=center;verticalAlign=middle;whiteSpace=wrap;rounded=0;" parent="oNFGNhtA4SceddN9MFem-229" vertex="1">
          <mxGeometry x="-10" y="6.5" width="60" height="30" as="geometry" />
        </mxCell>
        <mxCell id="oNFGNhtA4SceddN9MFem-232" value="" style="group" parent="oNFGNhtA4SceddN9MFem-227" vertex="1" connectable="0">
          <mxGeometry x="200" width="200" height="43" as="geometry" />
        </mxCell>
        <mxCell id="oNFGNhtA4SceddN9MFem-233" value="" style="swimlane;startSize=0;" parent="oNFGNhtA4SceddN9MFem-232" vertex="1">
          <mxGeometry width="200" height="41.5" as="geometry">
            <mxRectangle width="50" height="40" as="alternateBounds" />
          </mxGeometry>
        </mxCell>
        <mxCell id="oNFGNhtA4SceddN9MFem-234" value="&lt;font style=&quot;font-size: 24px;&quot;&gt;nome&lt;/font&gt;" style="text;html=1;align=center;verticalAlign=middle;resizable=0;points=[];autosize=1;strokeColor=none;fillColor=none;" parent="oNFGNhtA4SceddN9MFem-233" vertex="1">
          <mxGeometry x="60" y="1.5" width="80" height="40" as="geometry" />
        </mxCell>
        <mxCell id="oNFGNhtA4SceddN9MFem-235" value="" style="group" parent="oNFGNhtA4SceddN9MFem-227" vertex="1" connectable="0">
          <mxGeometry x="400" width="200" height="43" as="geometry" />
        </mxCell>
        <mxCell id="oNFGNhtA4SceddN9MFem-236" value="" style="swimlane;startSize=0;" parent="oNFGNhtA4SceddN9MFem-235" vertex="1">
          <mxGeometry width="200" height="41.5" as="geometry" />
        </mxCell>
        <mxCell id="oNFGNhtA4SceddN9MFem-237" value="&lt;font style=&quot;font-size: 24px;&quot;&gt;turno&lt;/font&gt;" style="text;html=1;align=center;verticalAlign=middle;resizable=0;points=[];autosize=1;strokeColor=none;fillColor=none;" parent="oNFGNhtA4SceddN9MFem-236" vertex="1">
          <mxGeometry x="60" y="1.5" width="80" height="40" as="geometry" />
        </mxCell>
        <mxCell id="oNFGNhtA4SceddN9MFem-238" value="" style="group" parent="oNFGNhtA4SceddN9MFem-227" vertex="1" connectable="0">
          <mxGeometry x="600" width="230" height="43" as="geometry" />
        </mxCell>
        <mxCell id="oNFGNhtA4SceddN9MFem-239" value="" style="swimlane;startSize=0;" parent="oNFGNhtA4SceddN9MFem-238" vertex="1">
          <mxGeometry width="230" height="41.5" as="geometry" />
        </mxCell>
        <mxCell id="oNFGNhtA4SceddN9MFem-240" value="&lt;font style=&quot;font-size: 24px;&quot;&gt;servidor_siape&lt;/font&gt;" style="text;html=1;align=center;verticalAlign=middle;resizable=0;points=[];autosize=1;strokeColor=none;fillColor=none;" parent="oNFGNhtA4SceddN9MFem-239" vertex="1">
          <mxGeometry x="39" y="1.5" width="180" height="40" as="geometry" />
        </mxCell>
        <mxCell id="GgJrNzVZVlJhMmaJBiFv-402" value="&lt;font color=&quot;#ff3333&quot; style=&quot;font-size: 24px;&quot;&gt;FK&lt;/font&gt;" style="text;html=1;align=center;verticalAlign=middle;whiteSpace=wrap;rounded=0;" parent="oNFGNhtA4SceddN9MFem-239" vertex="1">
          <mxGeometry x="-10.910000000000082" y="8.5" width="60" height="30" as="geometry" />
        </mxCell>
        <mxCell id="oNFGNhtA4SceddN9MFem-244" value="&lt;b&gt;Curso&lt;/b&gt;" style="text;html=1;align=left;verticalAlign=middle;whiteSpace=wrap;rounded=0;" parent="oNFGNhtA4SceddN9MFem-226" vertex="1">
          <mxGeometry width="110" height="30" as="geometry" />
        </mxCell>
        <mxCell id="oNFGNhtA4SceddN9MFem-271" value="" style="group" parent="1" vertex="1" connectable="0">
          <mxGeometry x="40" y="290" width="1230" height="73" as="geometry" />
        </mxCell>
        <mxCell id="oNFGNhtA4SceddN9MFem-206" value="" style="group" parent="oNFGNhtA4SceddN9MFem-271" vertex="1" connectable="0">
          <mxGeometry width="1001" height="73" as="geometry" />
        </mxCell>
        <mxCell id="oNFGNhtA4SceddN9MFem-136" value="&lt;b&gt;Aluno&lt;/b&gt;" style="text;html=1;align=left;verticalAlign=middle;whiteSpace=wrap;rounded=0;" parent="oNFGNhtA4SceddN9MFem-206" vertex="1">
          <mxGeometry width="110" height="30" as="geometry" />
        </mxCell>
        <mxCell id="oNFGNhtA4SceddN9MFem-187" value="" style="group" parent="oNFGNhtA4SceddN9MFem-206" vertex="1" connectable="0">
          <mxGeometry y="30" width="1001" height="43" as="geometry" />
        </mxCell>
        <mxCell id="oNFGNhtA4SceddN9MFem-188" value="" style="group" parent="oNFGNhtA4SceddN9MFem-187" vertex="1" connectable="0">
          <mxGeometry width="200" height="43" as="geometry" />
        </mxCell>
        <mxCell id="oNFGNhtA4SceddN9MFem-189" value="" style="swimlane;startSize=0;" parent="oNFGNhtA4SceddN9MFem-188" vertex="1">
          <mxGeometry width="200" height="41.5" as="geometry" />
        </mxCell>
        <mxCell id="oNFGNhtA4SceddN9MFem-190" value="&lt;font style=&quot;font-size: 24px;&quot;&gt;matricula&lt;/font&gt;" style="text;html=1;align=center;verticalAlign=middle;resizable=0;points=[];autosize=1;strokeColor=none;fillColor=none;" parent="oNFGNhtA4SceddN9MFem-189" vertex="1">
          <mxGeometry x="40" y="1.5" width="120" height="40" as="geometry" />
        </mxCell>
        <mxCell id="oNFGNhtA4SceddN9MFem-191" value="&lt;font color=&quot;#014e66&quot; style=&quot;font-size: 24px;&quot;&gt;PK&lt;/font&gt;" style="text;html=1;align=center;verticalAlign=middle;whiteSpace=wrap;rounded=0;" parent="oNFGNhtA4SceddN9MFem-189" vertex="1">
          <mxGeometry x="-10" y="6.5" width="60" height="30" as="geometry" />
        </mxCell>
        <mxCell id="oNFGNhtA4SceddN9MFem-192" value="" style="group" parent="oNFGNhtA4SceddN9MFem-187" vertex="1" connectable="0">
          <mxGeometry x="200" width="200" height="43" as="geometry" />
        </mxCell>
        <mxCell id="oNFGNhtA4SceddN9MFem-193" value="" style="swimlane;startSize=0;" parent="oNFGNhtA4SceddN9MFem-192" vertex="1">
          <mxGeometry width="200" height="41.5" as="geometry">
            <mxRectangle width="50" height="40" as="alternateBounds" />
          </mxGeometry>
        </mxCell>
        <mxCell id="oNFGNhtA4SceddN9MFem-194" value="&lt;span style=&quot;font-size: 24px;&quot;&gt;nome&lt;/span&gt;" style="text;html=1;align=center;verticalAlign=middle;resizable=0;points=[];autosize=1;strokeColor=none;fillColor=none;" parent="oNFGNhtA4SceddN9MFem-193" vertex="1">
          <mxGeometry x="60" y="1.5" width="80" height="40" as="geometry" />
        </mxCell>
        <mxCell id="DOF1BjW3caJsl0741FP9-10" value="" style="group" vertex="1" connectable="0" parent="oNFGNhtA4SceddN9MFem-187">
          <mxGeometry x="801" width="200" height="43" as="geometry" />
        </mxCell>
        <mxCell id="DOF1BjW3caJsl0741FP9-11" value="" style="swimlane;startSize=0;" vertex="1" parent="DOF1BjW3caJsl0741FP9-10">
          <mxGeometry width="200" height="41.5" as="geometry">
            <mxRectangle width="50" height="40" as="alternateBounds" />
          </mxGeometry>
        </mxCell>
        <mxCell id="DOF1BjW3caJsl0741FP9-12" value="&lt;span style=&quot;font-size: 24px;&quot;&gt;cpf&lt;/span&gt;" style="text;html=1;align=center;verticalAlign=middle;resizable=0;points=[];autosize=1;strokeColor=none;fillColor=none;" vertex="1" parent="DOF1BjW3caJsl0741FP9-11">
          <mxGeometry x="70" y="1.5" width="60" height="40" as="geometry" />
        </mxCell>
        <mxCell id="oNFGNhtA4SceddN9MFem-275" value="" style="group" parent="1" vertex="1" connectable="0">
          <mxGeometry x="40" y="770" width="1400" height="73" as="geometry" />
        </mxCell>
        <mxCell id="oNFGNhtA4SceddN9MFem-267" value="" style="group" parent="oNFGNhtA4SceddN9MFem-275" vertex="1" connectable="0">
          <mxGeometry width="1200" height="73" as="geometry" />
        </mxCell>
        <mxCell id="oNFGNhtA4SceddN9MFem-245" value="" style="group" parent="oNFGNhtA4SceddN9MFem-267" vertex="1" connectable="0">
          <mxGeometry width="1000" height="73" as="geometry" />
        </mxCell>
        <mxCell id="oNFGNhtA4SceddN9MFem-246" value="" style="group" parent="oNFGNhtA4SceddN9MFem-245" vertex="1" connectable="0">
          <mxGeometry y="30" width="1000" height="43" as="geometry" />
        </mxCell>
        <mxCell id="oNFGNhtA4SceddN9MFem-247" value="" style="group" parent="oNFGNhtA4SceddN9MFem-246" vertex="1" connectable="0">
          <mxGeometry width="200" height="43" as="geometry" />
        </mxCell>
        <mxCell id="oNFGNhtA4SceddN9MFem-248" value="" style="swimlane;startSize=0;" parent="oNFGNhtA4SceddN9MFem-247" vertex="1">
          <mxGeometry width="200" height="41.5" as="geometry" />
        </mxCell>
        <mxCell id="oNFGNhtA4SceddN9MFem-249" value="&lt;font style=&quot;font-size: 24px;&quot;&gt;id&lt;/font&gt;" style="text;html=1;align=center;verticalAlign=middle;resizable=0;points=[];autosize=1;strokeColor=none;fillColor=none;" parent="oNFGNhtA4SceddN9MFem-248" vertex="1">
          <mxGeometry x="80" y="1.5" width="40" height="40" as="geometry" />
        </mxCell>
        <mxCell id="oNFGNhtA4SceddN9MFem-250" value="&lt;font color=&quot;#014e66&quot; style=&quot;font-size: 24px;&quot;&gt;PK&lt;/font&gt;" style="text;html=1;align=center;verticalAlign=middle;whiteSpace=wrap;rounded=0;" parent="oNFGNhtA4SceddN9MFem-248" vertex="1">
          <mxGeometry x="-10" y="6.5" width="60" height="30" as="geometry" />
        </mxCell>
        <mxCell id="oNFGNhtA4SceddN9MFem-251" value="" style="group" parent="oNFGNhtA4SceddN9MFem-246" vertex="1" connectable="0">
          <mxGeometry x="200" width="200" height="43" as="geometry" />
        </mxCell>
        <mxCell id="oNFGNhtA4SceddN9MFem-252" value="" style="swimlane;startSize=0;" parent="oNFGNhtA4SceddN9MFem-251" vertex="1">
          <mxGeometry width="200" height="41.5" as="geometry">
            <mxRectangle width="50" height="40" as="alternateBounds" />
          </mxGeometry>
        </mxCell>
        <mxCell id="oNFGNhtA4SceddN9MFem-253" value="&lt;font style=&quot;font-size: 24px;&quot;&gt;descricao&lt;/font&gt;" style="text;html=1;align=center;verticalAlign=middle;resizable=0;points=[];autosize=1;strokeColor=none;fillColor=none;" parent="oNFGNhtA4SceddN9MFem-252" vertex="1">
          <mxGeometry x="35" y="1.5" width="130" height="40" as="geometry" />
        </mxCell>
        <mxCell id="DOF1BjW3caJsl0741FP9-41" value="" style="group" vertex="1" connectable="0" parent="oNFGNhtA4SceddN9MFem-246">
          <mxGeometry x="400" y="-0.5" width="200" height="43" as="geometry" />
        </mxCell>
        <mxCell id="DOF1BjW3caJsl0741FP9-42" value="" style="swimlane;startSize=0;" vertex="1" parent="DOF1BjW3caJsl0741FP9-41">
          <mxGeometry width="200" height="41.5" as="geometry">
            <mxRectangle width="50" height="40" as="alternateBounds" />
          </mxGeometry>
        </mxCell>
        <mxCell id="DOF1BjW3caJsl0741FP9-43" value="&lt;font style=&quot;font-size: 24px;&quot;&gt;carga_horaria&lt;/font&gt;" style="text;html=1;align=center;verticalAlign=middle;resizable=0;points=[];autosize=1;strokeColor=none;fillColor=none;" vertex="1" parent="DOF1BjW3caJsl0741FP9-42">
          <mxGeometry x="15" y="1.5" width="170" height="40" as="geometry" />
        </mxCell>
        <mxCell id="oNFGNhtA4SceddN9MFem-263" value="&lt;b&gt;Disciplina&lt;/b&gt;" style="text;html=1;align=left;verticalAlign=middle;whiteSpace=wrap;rounded=0;" parent="oNFGNhtA4SceddN9MFem-245" vertex="1">
          <mxGeometry width="110" height="30" as="geometry" />
        </mxCell>
        <mxCell id="GgJrNzVZVlJhMmaJBiFv-173" value="" style="group" parent="1" vertex="1" connectable="0">
          <mxGeometry x="41" y="1250" width="1200" height="73" as="geometry" />
        </mxCell>
        <mxCell id="GgJrNzVZVlJhMmaJBiFv-174" value="" style="group" parent="GgJrNzVZVlJhMmaJBiFv-173" vertex="1" connectable="0">
          <mxGeometry width="1000" height="73" as="geometry" />
        </mxCell>
        <mxCell id="GgJrNzVZVlJhMmaJBiFv-175" value="" style="group" parent="GgJrNzVZVlJhMmaJBiFv-174" vertex="1" connectable="0">
          <mxGeometry y="30" width="1000" height="43" as="geometry" />
        </mxCell>
        <mxCell id="GgJrNzVZVlJhMmaJBiFv-176" value="" style="group" parent="GgJrNzVZVlJhMmaJBiFv-175" vertex="1" connectable="0">
          <mxGeometry width="280" height="43" as="geometry" />
        </mxCell>
        <mxCell id="GgJrNzVZVlJhMmaJBiFv-177" value="" style="swimlane;startSize=0;" parent="GgJrNzVZVlJhMmaJBiFv-176" vertex="1">
          <mxGeometry width="280" height="41.5" as="geometry" />
        </mxCell>
        <mxCell id="GgJrNzVZVlJhMmaJBiFv-178" value="&lt;font style=&quot;font-size: 24px;&quot;&gt;produto_id&lt;/font&gt;" style="text;html=1;align=center;verticalAlign=middle;resizable=0;points=[];autosize=1;strokeColor=none;fillColor=none;" parent="GgJrNzVZVlJhMmaJBiFv-177" vertex="1">
          <mxGeometry x="109" y="1.5" width="140" height="40" as="geometry" />
        </mxCell>
        <mxCell id="GgJrNzVZVlJhMmaJBiFv-179" value="&lt;font color=&quot;#014e66&quot; style=&quot;font-size: 24px;&quot;&gt;PK&lt;/font&gt;" style="text;html=1;align=center;verticalAlign=middle;whiteSpace=wrap;rounded=0;" parent="GgJrNzVZVlJhMmaJBiFv-177" vertex="1">
          <mxGeometry x="-10" y="6.5" width="60" height="30" as="geometry" />
        </mxCell>
        <mxCell id="GgJrNzVZVlJhMmaJBiFv-410" value="&lt;font color=&quot;#ff3333&quot; style=&quot;font-size: 24px;&quot;&gt;FK&lt;/font&gt;" style="text;html=1;align=center;verticalAlign=middle;whiteSpace=wrap;rounded=0;" parent="GgJrNzVZVlJhMmaJBiFv-177" vertex="1">
          <mxGeometry x="29" y="6.5" width="60" height="30" as="geometry" />
        </mxCell>
        <mxCell id="GgJrNzVZVlJhMmaJBiFv-180" value="" style="group" parent="GgJrNzVZVlJhMmaJBiFv-175" vertex="1" connectable="0">
          <mxGeometry x="280" width="200" height="43" as="geometry" />
        </mxCell>
        <mxCell id="GgJrNzVZVlJhMmaJBiFv-181" value="" style="swimlane;startSize=0;" parent="GgJrNzVZVlJhMmaJBiFv-180" vertex="1">
          <mxGeometry width="200" height="41.5" as="geometry">
            <mxRectangle width="50" height="40" as="alternateBounds" />
          </mxGeometry>
        </mxCell>
        <mxCell id="GgJrNzVZVlJhMmaJBiFv-182" value="&lt;font style=&quot;font-size: 24px;&quot;&gt;filial_id&lt;/font&gt;" style="text;html=1;align=center;verticalAlign=middle;resizable=0;points=[];autosize=1;strokeColor=none;fillColor=none;" parent="GgJrNzVZVlJhMmaJBiFv-181" vertex="1">
          <mxGeometry x="88" y="1.5" width="100" height="40" as="geometry" />
        </mxCell>
        <mxCell id="GgJrNzVZVlJhMmaJBiFv-413" value="&lt;font color=&quot;#ff3333&quot; style=&quot;font-size: 24px;&quot;&gt;FK&lt;/font&gt;" style="text;html=1;align=center;verticalAlign=middle;whiteSpace=wrap;rounded=0;" parent="GgJrNzVZVlJhMmaJBiFv-181" vertex="1">
          <mxGeometry x="29" y="6.5" width="60" height="30" as="geometry" />
        </mxCell>
        <mxCell id="GgJrNzVZVlJhMmaJBiFv-183" value="" style="group" parent="GgJrNzVZVlJhMmaJBiFv-175" vertex="1" connectable="0">
          <mxGeometry x="480" width="200" height="43" as="geometry" />
        </mxCell>
        <mxCell id="GgJrNzVZVlJhMmaJBiFv-184" value="" style="swimlane;startSize=0;" parent="GgJrNzVZVlJhMmaJBiFv-183" vertex="1">
          <mxGeometry width="200" height="41.5" as="geometry" />
        </mxCell>
        <mxCell id="GgJrNzVZVlJhMmaJBiFv-185" value="&lt;font style=&quot;font-size: 24px;&quot;&gt;quantidade&lt;/font&gt;" style="text;html=1;align=center;verticalAlign=middle;resizable=0;points=[];autosize=1;strokeColor=none;fillColor=none;" parent="GgJrNzVZVlJhMmaJBiFv-184" vertex="1">
          <mxGeometry x="30" y="1.5" width="140" height="40" as="geometry" />
        </mxCell>
        <mxCell id="GgJrNzVZVlJhMmaJBiFv-189" value="&lt;b&gt;Estoque&lt;/b&gt;" style="text;html=1;align=left;verticalAlign=middle;whiteSpace=wrap;rounded=0;" parent="GgJrNzVZVlJhMmaJBiFv-174" vertex="1">
          <mxGeometry width="110" height="30" as="geometry" />
        </mxCell>
        <mxCell id="GgJrNzVZVlJhMmaJBiFv-198" value="" style="group" parent="1" vertex="1" connectable="0">
          <mxGeometry x="41" y="1370" width="1000" height="73" as="geometry" />
        </mxCell>
        <mxCell id="GgJrNzVZVlJhMmaJBiFv-199" value="" style="group" parent="GgJrNzVZVlJhMmaJBiFv-198" vertex="1" connectable="0">
          <mxGeometry y="30" width="1000" height="43" as="geometry" />
        </mxCell>
        <mxCell id="GgJrNzVZVlJhMmaJBiFv-200" value="" style="group" parent="GgJrNzVZVlJhMmaJBiFv-199" vertex="1" connectable="0">
          <mxGeometry width="242.4" height="43" as="geometry" />
        </mxCell>
        <mxCell id="GgJrNzVZVlJhMmaJBiFv-201" value="" style="swimlane;startSize=0;" parent="GgJrNzVZVlJhMmaJBiFv-200" vertex="1">
          <mxGeometry width="242.4" height="41.5" as="geometry" />
        </mxCell>
        <mxCell id="GgJrNzVZVlJhMmaJBiFv-202" value="&lt;font style=&quot;font-size: 24px;&quot;&gt;funcionario_id&lt;/font&gt;" style="text;html=1;align=center;verticalAlign=middle;resizable=0;points=[];autosize=1;strokeColor=none;fillColor=none;" parent="GgJrNzVZVlJhMmaJBiFv-201" vertex="1">
          <mxGeometry x="72.4" y="1.5" width="170" height="40" as="geometry" />
        </mxCell>
        <mxCell id="GgJrNzVZVlJhMmaJBiFv-203" value="&lt;font color=&quot;#014e66&quot; style=&quot;font-size: 24px;&quot;&gt;PK&lt;/font&gt;" style="text;html=1;align=center;verticalAlign=middle;whiteSpace=wrap;rounded=0;" parent="GgJrNzVZVlJhMmaJBiFv-201" vertex="1">
          <mxGeometry x="-12" y="6.5" width="72" height="30" as="geometry" />
        </mxCell>
        <mxCell id="GgJrNzVZVlJhMmaJBiFv-204" value="&lt;font color=&quot;#ff3333&quot; style=&quot;font-size: 24px;&quot;&gt;FK&lt;/font&gt;" style="text;html=1;align=center;verticalAlign=middle;whiteSpace=wrap;rounded=0;" parent="GgJrNzVZVlJhMmaJBiFv-201" vertex="1">
          <mxGeometry x="30" y="6.5" width="60" height="30" as="geometry" />
        </mxCell>
        <mxCell id="GgJrNzVZVlJhMmaJBiFv-205" value="" style="group" parent="GgJrNzVZVlJhMmaJBiFv-199" vertex="1" connectable="0">
          <mxGeometry x="241" width="270" height="43" as="geometry" />
        </mxCell>
        <mxCell id="GgJrNzVZVlJhMmaJBiFv-206" value="" style="swimlane;startSize=0;" parent="GgJrNzVZVlJhMmaJBiFv-205" vertex="1">
          <mxGeometry width="270" height="41.5" as="geometry">
            <mxRectangle width="50" height="40" as="alternateBounds" />
          </mxGeometry>
        </mxCell>
        <mxCell id="GgJrNzVZVlJhMmaJBiFv-207" value="&lt;span style=&quot;font-size: 24px;&quot;&gt;ddd&lt;/span&gt;" style="text;html=1;align=center;verticalAlign=middle;resizable=0;points=[];autosize=1;strokeColor=none;fillColor=none;" parent="GgJrNzVZVlJhMmaJBiFv-206" vertex="1">
          <mxGeometry x="139.75" y="1.5" width="60" height="40" as="geometry" />
        </mxCell>
        <mxCell id="GgJrNzVZVlJhMmaJBiFv-208" value="&lt;font color=&quot;#014e66&quot; style=&quot;font-size: 24px;&quot;&gt;PK&lt;/font&gt;" style="text;html=1;align=center;verticalAlign=middle;whiteSpace=wrap;rounded=0;" parent="GgJrNzVZVlJhMmaJBiFv-206" vertex="1">
          <mxGeometry x="-22.7" y="6.5" width="97.2" height="30" as="geometry" />
        </mxCell>
        <mxCell id="GgJrNzVZVlJhMmaJBiFv-378" value="" style="group" parent="GgJrNzVZVlJhMmaJBiFv-199" vertex="1" connectable="0">
          <mxGeometry x="511" width="270" height="43" as="geometry" />
        </mxCell>
        <mxCell id="GgJrNzVZVlJhMmaJBiFv-379" value="" style="swimlane;startSize=0;" parent="GgJrNzVZVlJhMmaJBiFv-378" vertex="1">
          <mxGeometry width="270" height="41.5" as="geometry">
            <mxRectangle width="50" height="40" as="alternateBounds" />
          </mxGeometry>
        </mxCell>
        <mxCell id="GgJrNzVZVlJhMmaJBiFv-380" value="&lt;span style=&quot;font-size: 24px;&quot;&gt;numero&lt;/span&gt;" style="text;html=1;align=center;verticalAlign=middle;resizable=0;points=[];autosize=1;strokeColor=none;fillColor=none;" parent="GgJrNzVZVlJhMmaJBiFv-379" vertex="1">
          <mxGeometry x="119.75" y="1.5" width="100" height="40" as="geometry" />
        </mxCell>
        <mxCell id="GgJrNzVZVlJhMmaJBiFv-381" value="&lt;font color=&quot;#014e66&quot; style=&quot;font-size: 24px;&quot;&gt;PK&lt;/font&gt;" style="text;html=1;align=center;verticalAlign=middle;whiteSpace=wrap;rounded=0;" parent="GgJrNzVZVlJhMmaJBiFv-379" vertex="1">
          <mxGeometry x="-22.7" y="6.5" width="97.2" height="30" as="geometry" />
        </mxCell>
        <mxCell id="GgJrNzVZVlJhMmaJBiFv-210" value="&lt;b&gt;Funcionario_telefone&lt;/b&gt;" style="text;html=1;align=left;verticalAlign=middle;whiteSpace=wrap;rounded=0;" parent="GgJrNzVZVlJhMmaJBiFv-198" vertex="1">
          <mxGeometry width="110" height="30" as="geometry" />
        </mxCell>
        <mxCell id="GgJrNzVZVlJhMmaJBiFv-211" value="" style="group" parent="1" vertex="1" connectable="0">
          <mxGeometry x="41" y="1490" width="1000" height="133" as="geometry" />
        </mxCell>
        <mxCell id="GgJrNzVZVlJhMmaJBiFv-212" value="" style="group" parent="GgJrNzVZVlJhMmaJBiFv-211" vertex="1" connectable="0">
          <mxGeometry y="30" width="1000" height="43" as="geometry" />
        </mxCell>
        <mxCell id="GgJrNzVZVlJhMmaJBiFv-213" value="" style="group" parent="GgJrNzVZVlJhMmaJBiFv-212" vertex="1" connectable="0">
          <mxGeometry width="240" height="43" as="geometry" />
        </mxCell>
        <mxCell id="GgJrNzVZVlJhMmaJBiFv-214" value="" style="swimlane;startSize=0;" parent="GgJrNzVZVlJhMmaJBiFv-213" vertex="1">
          <mxGeometry width="240" height="41.5" as="geometry" />
        </mxCell>
        <mxCell id="GgJrNzVZVlJhMmaJBiFv-215" value="&lt;font style=&quot;font-size: 24px;&quot;&gt;cliente_id&lt;/font&gt;" style="text;html=1;align=center;verticalAlign=middle;resizable=0;points=[];autosize=1;strokeColor=none;fillColor=none;" parent="GgJrNzVZVlJhMmaJBiFv-214" vertex="1">
          <mxGeometry x="87.4" y="1.5" width="120" height="40" as="geometry" />
        </mxCell>
        <mxCell id="GgJrNzVZVlJhMmaJBiFv-216" value="&lt;font color=&quot;#014e66&quot; style=&quot;font-size: 24px;&quot;&gt;PK&lt;/font&gt;" style="text;html=1;align=center;verticalAlign=middle;whiteSpace=wrap;rounded=0;" parent="GgJrNzVZVlJhMmaJBiFv-214" vertex="1">
          <mxGeometry x="-12" y="6.5" width="72" height="30" as="geometry" />
        </mxCell>
        <mxCell id="GgJrNzVZVlJhMmaJBiFv-217" value="&lt;font color=&quot;#ff3333&quot; style=&quot;font-size: 24px;&quot;&gt;FK&lt;/font&gt;" style="text;html=1;align=center;verticalAlign=middle;whiteSpace=wrap;rounded=0;" parent="GgJrNzVZVlJhMmaJBiFv-214" vertex="1">
          <mxGeometry x="30" y="6.5" width="60" height="30" as="geometry" />
        </mxCell>
        <mxCell id="GgJrNzVZVlJhMmaJBiFv-218" value="" style="group" parent="GgJrNzVZVlJhMmaJBiFv-212" vertex="1" connectable="0">
          <mxGeometry x="240" width="270" height="43" as="geometry" />
        </mxCell>
        <mxCell id="GgJrNzVZVlJhMmaJBiFv-219" value="" style="swimlane;startSize=0;" parent="GgJrNzVZVlJhMmaJBiFv-218" vertex="1">
          <mxGeometry width="270.00000000000006" height="41.5" as="geometry">
            <mxRectangle width="50" height="40" as="alternateBounds" />
          </mxGeometry>
        </mxCell>
        <mxCell id="GgJrNzVZVlJhMmaJBiFv-220" value="&lt;font style=&quot;font-size: 24px;&quot;&gt;ddd&lt;/font&gt;" style="text;html=1;align=center;verticalAlign=middle;resizable=0;points=[];autosize=1;strokeColor=none;fillColor=none;" parent="GgJrNzVZVlJhMmaJBiFv-219" vertex="1">
          <mxGeometry x="147.04545454545456" y="1.5" width="60" height="40" as="geometry" />
        </mxCell>
        <mxCell id="GgJrNzVZVlJhMmaJBiFv-221" value="&lt;font color=&quot;#014e66&quot; style=&quot;font-size: 24px;&quot;&gt;PK&lt;/font&gt;" style="text;html=1;align=center;verticalAlign=middle;whiteSpace=wrap;rounded=0;" parent="GgJrNzVZVlJhMmaJBiFv-219" vertex="1">
          <mxGeometry x="-21.6" y="6.5" width="97.2" height="30" as="geometry" />
        </mxCell>
        <mxCell id="GgJrNzVZVlJhMmaJBiFv-383" value="" style="group" parent="GgJrNzVZVlJhMmaJBiFv-212" vertex="1" connectable="0">
          <mxGeometry x="510" width="270" height="43" as="geometry" />
        </mxCell>
        <mxCell id="GgJrNzVZVlJhMmaJBiFv-384" value="" style="swimlane;startSize=0;" parent="GgJrNzVZVlJhMmaJBiFv-383" vertex="1">
          <mxGeometry width="270.00000000000006" height="41.5" as="geometry">
            <mxRectangle width="50" height="40" as="alternateBounds" />
          </mxGeometry>
        </mxCell>
        <mxCell id="GgJrNzVZVlJhMmaJBiFv-385" value="&lt;font style=&quot;font-size: 24px;&quot;&gt;numero&lt;/font&gt;" style="text;html=1;align=center;verticalAlign=middle;resizable=0;points=[];autosize=1;strokeColor=none;fillColor=none;" parent="GgJrNzVZVlJhMmaJBiFv-384" vertex="1">
          <mxGeometry x="127.04545454545456" y="1.5" width="100" height="40" as="geometry" />
        </mxCell>
        <mxCell id="GgJrNzVZVlJhMmaJBiFv-386" value="&lt;font color=&quot;#014e66&quot; style=&quot;font-size: 24px;&quot;&gt;PK&lt;/font&gt;" style="text;html=1;align=center;verticalAlign=middle;whiteSpace=wrap;rounded=0;" parent="GgJrNzVZVlJhMmaJBiFv-384" vertex="1">
          <mxGeometry x="-21.6" y="6.5" width="97.2" height="30" as="geometry" />
        </mxCell>
        <mxCell id="GgJrNzVZVlJhMmaJBiFv-223" value="&lt;b&gt;Cliente_telefone&lt;/b&gt;" style="text;html=1;align=left;verticalAlign=middle;whiteSpace=wrap;rounded=0;" parent="GgJrNzVZVlJhMmaJBiFv-211" vertex="1">
          <mxGeometry width="110" height="30" as="geometry" />
        </mxCell>
        <mxCell id="GgJrNzVZVlJhMmaJBiFv-226" value="" style="group" parent="1" vertex="1" connectable="0">
          <mxGeometry x="41" y="1640" width="240" height="43" as="geometry" />
        </mxCell>
        <mxCell id="GgJrNzVZVlJhMmaJBiFv-227" value="" style="swimlane;startSize=0;" parent="GgJrNzVZVlJhMmaJBiFv-226" vertex="1">
          <mxGeometry width="240" height="41.5" as="geometry" />
        </mxCell>
        <mxCell id="GgJrNzVZVlJhMmaJBiFv-228" value="&lt;font style=&quot;font-size: 24px;&quot;&gt;filial_id&lt;/font&gt;" style="text;html=1;align=center;verticalAlign=middle;resizable=0;points=[];autosize=1;strokeColor=none;fillColor=none;" parent="GgJrNzVZVlJhMmaJBiFv-227" vertex="1">
          <mxGeometry x="107.4" y="1.5" width="100" height="40" as="geometry" />
        </mxCell>
        <mxCell id="GgJrNzVZVlJhMmaJBiFv-229" value="&lt;font color=&quot;#014e66&quot; style=&quot;font-size: 24px;&quot;&gt;PK&lt;/font&gt;" style="text;html=1;align=center;verticalAlign=middle;whiteSpace=wrap;rounded=0;" parent="GgJrNzVZVlJhMmaJBiFv-227" vertex="1">
          <mxGeometry x="-12" y="6.5" width="72" height="30" as="geometry" />
        </mxCell>
        <mxCell id="GgJrNzVZVlJhMmaJBiFv-230" value="&lt;font color=&quot;#ff3333&quot; style=&quot;font-size: 24px;&quot;&gt;FK&lt;/font&gt;" style="text;html=1;align=center;verticalAlign=middle;whiteSpace=wrap;rounded=0;" parent="GgJrNzVZVlJhMmaJBiFv-227" vertex="1">
          <mxGeometry x="30" y="6.5" width="60" height="30" as="geometry" />
        </mxCell>
        <mxCell id="GgJrNzVZVlJhMmaJBiFv-231" value="" style="group" parent="1" vertex="1" connectable="0">
          <mxGeometry x="281" y="1640" width="270" height="43" as="geometry" />
        </mxCell>
        <mxCell id="GgJrNzVZVlJhMmaJBiFv-232" value="" style="swimlane;startSize=0;" parent="GgJrNzVZVlJhMmaJBiFv-231" vertex="1">
          <mxGeometry width="270" height="41.5" as="geometry">
            <mxRectangle width="50" height="40" as="alternateBounds" />
          </mxGeometry>
        </mxCell>
        <mxCell id="GgJrNzVZVlJhMmaJBiFv-233" value="&lt;span style=&quot;font-size: 24px;&quot;&gt;ddd&lt;/span&gt;" style="text;html=1;align=center;verticalAlign=middle;resizable=0;points=[];autosize=1;strokeColor=none;fillColor=none;" parent="GgJrNzVZVlJhMmaJBiFv-232" vertex="1">
          <mxGeometry x="139.75" y="1.5" width="60" height="40" as="geometry" />
        </mxCell>
        <mxCell id="GgJrNzVZVlJhMmaJBiFv-234" value="&lt;font color=&quot;#014e66&quot; style=&quot;font-size: 24px;&quot;&gt;PK&lt;/font&gt;" style="text;html=1;align=center;verticalAlign=middle;whiteSpace=wrap;rounded=0;" parent="GgJrNzVZVlJhMmaJBiFv-232" vertex="1">
          <mxGeometry x="-22.7" y="6.5" width="97.2" height="30" as="geometry" />
        </mxCell>
        <mxCell id="GgJrNzVZVlJhMmaJBiFv-236" value="&lt;b&gt;Filial_telefone&lt;/b&gt;" style="text;html=1;align=left;verticalAlign=middle;whiteSpace=wrap;rounded=0;" parent="1" vertex="1">
          <mxGeometry x="41" y="1610" width="110" height="30" as="geometry" />
        </mxCell>
        <mxCell id="GgJrNzVZVlJhMmaJBiFv-237" value="" style="group" parent="1" vertex="1" connectable="0">
          <mxGeometry x="41" y="1760" width="240" height="43" as="geometry" />
        </mxCell>
        <mxCell id="GgJrNzVZVlJhMmaJBiFv-238" value="" style="swimlane;startSize=0;" parent="GgJrNzVZVlJhMmaJBiFv-237" vertex="1">
          <mxGeometry width="240" height="41.5" as="geometry" />
        </mxCell>
        <mxCell id="GgJrNzVZVlJhMmaJBiFv-239" value="&lt;font style=&quot;font-size: 24px;&quot;&gt;fornecedor_id&lt;/font&gt;" style="text;html=1;align=center;verticalAlign=middle;resizable=0;points=[];autosize=1;strokeColor=none;fillColor=none;" parent="GgJrNzVZVlJhMmaJBiFv-238" vertex="1">
          <mxGeometry x="62.400000000000006" y="1.5" width="170" height="40" as="geometry" />
        </mxCell>
        <mxCell id="GgJrNzVZVlJhMmaJBiFv-240" value="&lt;font color=&quot;#014e66&quot; style=&quot;font-size: 24px;&quot;&gt;PK&lt;/font&gt;" style="text;html=1;align=center;verticalAlign=middle;whiteSpace=wrap;rounded=0;" parent="GgJrNzVZVlJhMmaJBiFv-238" vertex="1">
          <mxGeometry x="-12" y="6.5" width="72" height="30" as="geometry" />
        </mxCell>
        <mxCell id="GgJrNzVZVlJhMmaJBiFv-241" value="&lt;font color=&quot;#ff3333&quot; style=&quot;font-size: 24px;&quot;&gt;FK&lt;/font&gt;" style="text;html=1;align=center;verticalAlign=middle;whiteSpace=wrap;rounded=0;" parent="GgJrNzVZVlJhMmaJBiFv-238" vertex="1">
          <mxGeometry x="30" y="6.5" width="60" height="30" as="geometry" />
        </mxCell>
        <mxCell id="GgJrNzVZVlJhMmaJBiFv-242" value="" style="group" parent="1" vertex="1" connectable="0">
          <mxGeometry x="281" y="1760" width="270" height="43" as="geometry" />
        </mxCell>
        <mxCell id="GgJrNzVZVlJhMmaJBiFv-243" value="" style="swimlane;startSize=0;" parent="GgJrNzVZVlJhMmaJBiFv-242" vertex="1">
          <mxGeometry width="270.00000000000006" height="41.5" as="geometry">
            <mxRectangle width="50" height="40" as="alternateBounds" />
          </mxGeometry>
        </mxCell>
        <mxCell id="GgJrNzVZVlJhMmaJBiFv-244" value="&lt;font style=&quot;font-size: 24px;&quot;&gt;ddd&lt;/font&gt;" style="text;html=1;align=center;verticalAlign=middle;resizable=0;points=[];autosize=1;strokeColor=none;fillColor=none;" parent="GgJrNzVZVlJhMmaJBiFv-243" vertex="1">
          <mxGeometry x="147.04545454545456" y="1.5" width="60" height="40" as="geometry" />
        </mxCell>
        <mxCell id="GgJrNzVZVlJhMmaJBiFv-245" value="&lt;font color=&quot;#014e66&quot; style=&quot;font-size: 24px;&quot;&gt;PK&lt;/font&gt;" style="text;html=1;align=center;verticalAlign=middle;whiteSpace=wrap;rounded=0;" parent="GgJrNzVZVlJhMmaJBiFv-243" vertex="1">
          <mxGeometry x="-21.6" y="6.5" width="97.2" height="30" as="geometry" />
        </mxCell>
        <mxCell id="GgJrNzVZVlJhMmaJBiFv-247" value="&lt;b&gt;Fornecedor_telefone&lt;/b&gt;" style="text;html=1;align=left;verticalAlign=middle;whiteSpace=wrap;rounded=0;" parent="1" vertex="1">
          <mxGeometry x="41" y="1730" width="110" height="30" as="geometry" />
        </mxCell>
        <mxCell id="GgJrNzVZVlJhMmaJBiFv-311" value="" style="group" parent="1" vertex="1" connectable="0">
          <mxGeometry x="41" y="890" width="1000" height="74.5" as="geometry" />
        </mxCell>
        <mxCell id="GgJrNzVZVlJhMmaJBiFv-312" value="" style="group" parent="GgJrNzVZVlJhMmaJBiFv-311" vertex="1" connectable="0">
          <mxGeometry y="30" width="1000" height="44.5" as="geometry" />
        </mxCell>
        <mxCell id="GgJrNzVZVlJhMmaJBiFv-313" value="" style="group" parent="GgJrNzVZVlJhMmaJBiFv-312" vertex="1" connectable="0">
          <mxGeometry width="200" height="43" as="geometry" />
        </mxCell>
        <mxCell id="GgJrNzVZVlJhMmaJBiFv-314" value="" style="swimlane;startSize=0;" parent="GgJrNzVZVlJhMmaJBiFv-313" vertex="1">
          <mxGeometry width="200" height="41.5" as="geometry" />
        </mxCell>
        <mxCell id="GgJrNzVZVlJhMmaJBiFv-315" value="&lt;font style=&quot;font-size: 24px;&quot;&gt;siape&lt;/font&gt;" style="text;html=1;align=center;verticalAlign=middle;resizable=0;points=[];autosize=1;strokeColor=none;fillColor=none;" parent="GgJrNzVZVlJhMmaJBiFv-314" vertex="1">
          <mxGeometry x="60" y="1.5" width="80" height="40" as="geometry" />
        </mxCell>
        <mxCell id="GgJrNzVZVlJhMmaJBiFv-316" value="&lt;font color=&quot;#014e66&quot; style=&quot;font-size: 24px;&quot;&gt;PK&lt;/font&gt;" style="text;html=1;align=center;verticalAlign=middle;whiteSpace=wrap;rounded=0;" parent="GgJrNzVZVlJhMmaJBiFv-314" vertex="1">
          <mxGeometry x="-10" y="6.5" width="60" height="30" as="geometry" />
        </mxCell>
        <mxCell id="GgJrNzVZVlJhMmaJBiFv-317" value="" style="group" parent="GgJrNzVZVlJhMmaJBiFv-312" vertex="1" connectable="0">
          <mxGeometry x="200" width="200" height="43" as="geometry" />
        </mxCell>
        <mxCell id="GgJrNzVZVlJhMmaJBiFv-318" value="" style="swimlane;startSize=0;" parent="GgJrNzVZVlJhMmaJBiFv-317" vertex="1">
          <mxGeometry width="200" height="41.5" as="geometry">
            <mxRectangle width="50" height="40" as="alternateBounds" />
          </mxGeometry>
        </mxCell>
        <mxCell id="GgJrNzVZVlJhMmaJBiFv-319" value="&lt;font style=&quot;font-size: 24px;&quot;&gt;nome&lt;/font&gt;" style="text;html=1;align=center;verticalAlign=middle;resizable=0;points=[];autosize=1;strokeColor=none;fillColor=none;" parent="GgJrNzVZVlJhMmaJBiFv-318" vertex="1">
          <mxGeometry x="60" y="1.5" width="80" height="40" as="geometry" />
        </mxCell>
        <mxCell id="DOF1BjW3caJsl0741FP9-44" value="" style="group" vertex="1" connectable="0" parent="GgJrNzVZVlJhMmaJBiFv-312">
          <mxGeometry x="400" width="200" height="43" as="geometry" />
        </mxCell>
        <mxCell id="DOF1BjW3caJsl0741FP9-45" value="" style="swimlane;startSize=0;" vertex="1" parent="DOF1BjW3caJsl0741FP9-44">
          <mxGeometry width="200" height="41.5" as="geometry">
            <mxRectangle width="50" height="40" as="alternateBounds" />
          </mxGeometry>
        </mxCell>
        <mxCell id="DOF1BjW3caJsl0741FP9-46" value="&lt;font style=&quot;font-size: 24px;&quot;&gt;email&lt;/font&gt;" style="text;html=1;align=center;verticalAlign=middle;resizable=0;points=[];autosize=1;strokeColor=none;fillColor=none;" vertex="1" parent="DOF1BjW3caJsl0741FP9-45">
          <mxGeometry x="60" y="1.5" width="80" height="40" as="geometry" />
        </mxCell>
        <mxCell id="DOF1BjW3caJsl0741FP9-47" value="" style="group" vertex="1" connectable="0" parent="GgJrNzVZVlJhMmaJBiFv-312">
          <mxGeometry x="600" width="200" height="43" as="geometry" />
        </mxCell>
        <mxCell id="DOF1BjW3caJsl0741FP9-48" value="" style="swimlane;startSize=0;" vertex="1" parent="DOF1BjW3caJsl0741FP9-47">
          <mxGeometry width="200" height="41.5" as="geometry">
            <mxRectangle width="50" height="40" as="alternateBounds" />
          </mxGeometry>
        </mxCell>
        <mxCell id="DOF1BjW3caJsl0741FP9-49" value="&lt;font style=&quot;font-size: 24px;&quot;&gt;endereco&lt;/font&gt;" style="text;html=1;align=center;verticalAlign=middle;resizable=0;points=[];autosize=1;strokeColor=none;fillColor=none;" vertex="1" parent="DOF1BjW3caJsl0741FP9-48">
          <mxGeometry x="40" y="1.5" width="120" height="40" as="geometry" />
        </mxCell>
        <mxCell id="DOF1BjW3caJsl0741FP9-50" value="" style="group" vertex="1" connectable="0" parent="GgJrNzVZVlJhMmaJBiFv-312">
          <mxGeometry x="800" y="-0.25" width="200" height="43" as="geometry" />
        </mxCell>
        <mxCell id="DOF1BjW3caJsl0741FP9-51" value="" style="swimlane;startSize=0;" vertex="1" parent="DOF1BjW3caJsl0741FP9-50">
          <mxGeometry width="200" height="41.5" as="geometry">
            <mxRectangle width="50" height="40" as="alternateBounds" />
          </mxGeometry>
        </mxCell>
        <mxCell id="DOF1BjW3caJsl0741FP9-52" value="&lt;font style=&quot;font-size: 24px;&quot;&gt;cpf&lt;/font&gt;" style="text;html=1;align=center;verticalAlign=middle;resizable=0;points=[];autosize=1;strokeColor=none;fillColor=none;" vertex="1" parent="DOF1BjW3caJsl0741FP9-51">
          <mxGeometry x="70" y="1.5" width="60" height="40" as="geometry" />
        </mxCell>
        <mxCell id="GgJrNzVZVlJhMmaJBiFv-323" value="&lt;b&gt;Servidor_administrativo&lt;/b&gt;" style="text;html=1;align=left;verticalAlign=middle;whiteSpace=wrap;rounded=0;" parent="GgJrNzVZVlJhMmaJBiFv-311" vertex="1">
          <mxGeometry width="110" height="30" as="geometry" />
        </mxCell>
        <mxCell id="GgJrNzVZVlJhMmaJBiFv-324" value="" style="group" parent="1" vertex="1" connectable="0">
          <mxGeometry x="41" y="1010" width="1000" height="73" as="geometry" />
        </mxCell>
        <mxCell id="GgJrNzVZVlJhMmaJBiFv-325" value="" style="group" parent="GgJrNzVZVlJhMmaJBiFv-324" vertex="1" connectable="0">
          <mxGeometry y="30" width="1000" height="43" as="geometry" />
        </mxCell>
        <mxCell id="GgJrNzVZVlJhMmaJBiFv-326" value="" style="group" parent="GgJrNzVZVlJhMmaJBiFv-325" vertex="1" connectable="0">
          <mxGeometry width="200" height="43" as="geometry" />
        </mxCell>
        <mxCell id="GgJrNzVZVlJhMmaJBiFv-327" value="" style="swimlane;startSize=0;" parent="GgJrNzVZVlJhMmaJBiFv-326" vertex="1">
          <mxGeometry width="200" height="41.5" as="geometry" />
        </mxCell>
        <mxCell id="GgJrNzVZVlJhMmaJBiFv-328" value="&lt;font style=&quot;font-size: 24px;&quot;&gt;id&lt;/font&gt;" style="text;html=1;align=center;verticalAlign=middle;resizable=0;points=[];autosize=1;strokeColor=none;fillColor=none;" parent="GgJrNzVZVlJhMmaJBiFv-327" vertex="1">
          <mxGeometry x="80" y="1.5" width="40" height="40" as="geometry" />
        </mxCell>
        <mxCell id="GgJrNzVZVlJhMmaJBiFv-329" value="&lt;font color=&quot;#014e66&quot; style=&quot;font-size: 24px;&quot;&gt;PK&lt;/font&gt;" style="text;html=1;align=center;verticalAlign=middle;whiteSpace=wrap;rounded=0;" parent="GgJrNzVZVlJhMmaJBiFv-327" vertex="1">
          <mxGeometry x="-10" y="6.5" width="60" height="30" as="geometry" />
        </mxCell>
        <mxCell id="GgJrNzVZVlJhMmaJBiFv-330" value="" style="group" parent="GgJrNzVZVlJhMmaJBiFv-325" vertex="1" connectable="0">
          <mxGeometry x="200" width="200" height="43" as="geometry" />
        </mxCell>
        <mxCell id="GgJrNzVZVlJhMmaJBiFv-331" value="" style="swimlane;startSize=0;" parent="GgJrNzVZVlJhMmaJBiFv-330" vertex="1">
          <mxGeometry width="200" height="41.5" as="geometry">
            <mxRectangle width="50" height="40" as="alternateBounds" />
          </mxGeometry>
        </mxCell>
        <mxCell id="GgJrNzVZVlJhMmaJBiFv-332" value="&lt;font style=&quot;font-size: 24px;&quot;&gt;data_hora&lt;/font&gt;" style="text;html=1;align=center;verticalAlign=middle;resizable=0;points=[];autosize=1;strokeColor=none;fillColor=none;" parent="GgJrNzVZVlJhMmaJBiFv-331" vertex="1">
          <mxGeometry x="35" y="1.5" width="130" height="40" as="geometry" />
        </mxCell>
        <mxCell id="GgJrNzVZVlJhMmaJBiFv-333" value="" style="group" parent="GgJrNzVZVlJhMmaJBiFv-325" vertex="1" connectable="0">
          <mxGeometry x="400" width="200" height="43" as="geometry" />
        </mxCell>
        <mxCell id="GgJrNzVZVlJhMmaJBiFv-334" value="" style="swimlane;startSize=0;" parent="GgJrNzVZVlJhMmaJBiFv-333" vertex="1">
          <mxGeometry width="200" height="41.5" as="geometry" />
        </mxCell>
        <mxCell id="GgJrNzVZVlJhMmaJBiFv-335" value="&lt;font style=&quot;font-size: 24px;&quot;&gt;filial_id&lt;/font&gt;" style="text;html=1;align=center;verticalAlign=middle;resizable=0;points=[];autosize=1;strokeColor=none;fillColor=none;" parent="GgJrNzVZVlJhMmaJBiFv-334" vertex="1">
          <mxGeometry x="67" y="1.5" width="100" height="40" as="geometry" />
        </mxCell>
        <mxCell id="GgJrNzVZVlJhMmaJBiFv-336" value="" style="group" parent="GgJrNzVZVlJhMmaJBiFv-325" vertex="1" connectable="0">
          <mxGeometry x="600" width="200" height="43" as="geometry" />
        </mxCell>
        <mxCell id="GgJrNzVZVlJhMmaJBiFv-337" value="" style="swimlane;startSize=0;" parent="GgJrNzVZVlJhMmaJBiFv-336" vertex="1">
          <mxGeometry width="200" height="41.5" as="geometry" />
        </mxCell>
        <mxCell id="GgJrNzVZVlJhMmaJBiFv-338" value="&lt;font style=&quot;font-size: 24px;&quot;&gt;cliente_id&lt;/font&gt;" style="text;html=1;align=center;verticalAlign=middle;resizable=0;points=[];autosize=1;strokeColor=none;fillColor=none;" parent="GgJrNzVZVlJhMmaJBiFv-337" vertex="1">
          <mxGeometry x="51" y="1.5" width="120" height="40" as="geometry" />
        </mxCell>
        <mxCell id="GgJrNzVZVlJhMmaJBiFv-339" value="" style="group" parent="GgJrNzVZVlJhMmaJBiFv-325" vertex="1" connectable="0">
          <mxGeometry x="800" width="200" height="43" as="geometry" />
        </mxCell>
        <mxCell id="GgJrNzVZVlJhMmaJBiFv-340" value="" style="swimlane;startSize=0;" parent="GgJrNzVZVlJhMmaJBiFv-339" vertex="1">
          <mxGeometry width="200" height="41.5" as="geometry" />
        </mxCell>
        <mxCell id="GgJrNzVZVlJhMmaJBiFv-341" value="&lt;font style=&quot;font-size: 24px;&quot;&gt;funcionario_id&lt;/font&gt;" style="text;html=1;align=center;verticalAlign=middle;resizable=0;points=[];autosize=1;strokeColor=none;fillColor=none;" parent="GgJrNzVZVlJhMmaJBiFv-340" vertex="1">
          <mxGeometry x="31" y="1.5" width="170" height="40" as="geometry" />
        </mxCell>
        <mxCell id="GgJrNzVZVlJhMmaJBiFv-342" value="&lt;b&gt;Venda&lt;/b&gt;" style="text;html=1;align=left;verticalAlign=middle;whiteSpace=wrap;rounded=0;" parent="GgJrNzVZVlJhMmaJBiFv-324" vertex="1">
          <mxGeometry width="110" height="30" as="geometry" />
        </mxCell>
        <mxCell id="GgJrNzVZVlJhMmaJBiFv-343" value="" style="group" parent="1" vertex="1" connectable="0">
          <mxGeometry x="41" y="1130" width="1200" height="73" as="geometry" />
        </mxCell>
        <mxCell id="GgJrNzVZVlJhMmaJBiFv-344" value="" style="group" parent="GgJrNzVZVlJhMmaJBiFv-343" vertex="1" connectable="0">
          <mxGeometry width="1000" height="73" as="geometry" />
        </mxCell>
        <mxCell id="GgJrNzVZVlJhMmaJBiFv-345" value="" style="group" parent="GgJrNzVZVlJhMmaJBiFv-344" vertex="1" connectable="0">
          <mxGeometry y="30" width="1000" height="43" as="geometry" />
        </mxCell>
        <mxCell id="GgJrNzVZVlJhMmaJBiFv-346" value="" style="group" parent="GgJrNzVZVlJhMmaJBiFv-345" vertex="1" connectable="0">
          <mxGeometry width="280" height="43" as="geometry" />
        </mxCell>
        <mxCell id="GgJrNzVZVlJhMmaJBiFv-347" value="" style="swimlane;startSize=0;" parent="GgJrNzVZVlJhMmaJBiFv-346" vertex="1">
          <mxGeometry width="280" height="41.5" as="geometry" />
        </mxCell>
        <mxCell id="GgJrNzVZVlJhMmaJBiFv-348" value="&lt;font style=&quot;font-size: 24px;&quot;&gt;produto_id&lt;/font&gt;" style="text;html=1;align=center;verticalAlign=middle;resizable=0;points=[];autosize=1;strokeColor=none;fillColor=none;" parent="GgJrNzVZVlJhMmaJBiFv-347" vertex="1">
          <mxGeometry x="109" y="1.5" width="140" height="40" as="geometry" />
        </mxCell>
        <mxCell id="GgJrNzVZVlJhMmaJBiFv-349" value="&lt;font color=&quot;#014e66&quot; style=&quot;font-size: 24px;&quot;&gt;PK&lt;/font&gt;" style="text;html=1;align=center;verticalAlign=middle;whiteSpace=wrap;rounded=0;" parent="GgJrNzVZVlJhMmaJBiFv-347" vertex="1">
          <mxGeometry x="-10" y="6.5" width="60" height="30" as="geometry" />
        </mxCell>
        <mxCell id="GgJrNzVZVlJhMmaJBiFv-411" value="&lt;font color=&quot;#ff3333&quot; style=&quot;font-size: 24px;&quot;&gt;FK&lt;/font&gt;" style="text;html=1;align=center;verticalAlign=middle;whiteSpace=wrap;rounded=0;" parent="GgJrNzVZVlJhMmaJBiFv-347" vertex="1">
          <mxGeometry x="29" y="9" width="60" height="30" as="geometry" />
        </mxCell>
        <mxCell id="GgJrNzVZVlJhMmaJBiFv-350" value="" style="group" parent="GgJrNzVZVlJhMmaJBiFv-345" vertex="1" connectable="0">
          <mxGeometry x="280" y="-0.5" width="200" height="43" as="geometry" />
        </mxCell>
        <mxCell id="GgJrNzVZVlJhMmaJBiFv-351" value="" style="swimlane;startSize=0;" parent="GgJrNzVZVlJhMmaJBiFv-350" vertex="1">
          <mxGeometry width="200" height="41.5" as="geometry">
            <mxRectangle width="50" height="40" as="alternateBounds" />
          </mxGeometry>
        </mxCell>
        <mxCell id="GgJrNzVZVlJhMmaJBiFv-352" value="&lt;font style=&quot;font-size: 24px;&quot;&gt;venda_id&lt;/font&gt;" style="text;html=1;align=center;verticalAlign=middle;resizable=0;points=[];autosize=1;strokeColor=none;fillColor=none;" parent="GgJrNzVZVlJhMmaJBiFv-351" vertex="1">
          <mxGeometry x="79" y="1.5" width="120" height="40" as="geometry" />
        </mxCell>
        <mxCell id="GgJrNzVZVlJhMmaJBiFv-412" value="&lt;font color=&quot;#ff3333&quot; style=&quot;font-size: 24px;&quot;&gt;FK&lt;/font&gt;" style="text;html=1;align=center;verticalAlign=middle;whiteSpace=wrap;rounded=0;" parent="GgJrNzVZVlJhMmaJBiFv-351" vertex="1">
          <mxGeometry x="29" y="9.5" width="60" height="30" as="geometry" />
        </mxCell>
        <mxCell id="GgJrNzVZVlJhMmaJBiFv-414" value="&lt;font color=&quot;#014e66&quot; style=&quot;font-size: 24px;&quot;&gt;PK&lt;/font&gt;" style="text;html=1;align=center;verticalAlign=middle;whiteSpace=wrap;rounded=0;" parent="GgJrNzVZVlJhMmaJBiFv-351" vertex="1">
          <mxGeometry x="-9" y="7.5" width="60" height="30" as="geometry" />
        </mxCell>
        <mxCell id="GgJrNzVZVlJhMmaJBiFv-353" value="" style="group" parent="GgJrNzVZVlJhMmaJBiFv-345" vertex="1" connectable="0">
          <mxGeometry x="480" y="-0.5" width="200" height="43" as="geometry" />
        </mxCell>
        <mxCell id="GgJrNzVZVlJhMmaJBiFv-354" value="" style="swimlane;startSize=0;" parent="GgJrNzVZVlJhMmaJBiFv-353" vertex="1">
          <mxGeometry width="200" height="41.5" as="geometry" />
        </mxCell>
        <mxCell id="GgJrNzVZVlJhMmaJBiFv-355" value="&lt;font style=&quot;font-size: 24px;&quot;&gt;quantidade&lt;/font&gt;" style="text;html=1;align=center;verticalAlign=middle;resizable=0;points=[];autosize=1;strokeColor=none;fillColor=none;" parent="GgJrNzVZVlJhMmaJBiFv-354" vertex="1">
          <mxGeometry x="30" y="1.5" width="140" height="40" as="geometry" />
        </mxCell>
        <mxCell id="GgJrNzVZVlJhMmaJBiFv-359" value="&lt;b&gt;Produto_venda&lt;/b&gt;" style="text;html=1;align=left;verticalAlign=middle;whiteSpace=wrap;rounded=0;" parent="GgJrNzVZVlJhMmaJBiFv-344" vertex="1">
          <mxGeometry width="110" height="30" as="geometry" />
        </mxCell>
        <mxCell id="GgJrNzVZVlJhMmaJBiFv-388" value="" style="group" parent="1" vertex="1" connectable="0">
          <mxGeometry x="550" y="1640" width="270" height="43" as="geometry" />
        </mxCell>
        <mxCell id="GgJrNzVZVlJhMmaJBiFv-389" value="" style="swimlane;startSize=0;" parent="GgJrNzVZVlJhMmaJBiFv-388" vertex="1">
          <mxGeometry width="270" height="41.5" as="geometry">
            <mxRectangle width="50" height="40" as="alternateBounds" />
          </mxGeometry>
        </mxCell>
        <mxCell id="GgJrNzVZVlJhMmaJBiFv-390" value="&lt;span style=&quot;font-size: 24px;&quot;&gt;numero&lt;/span&gt;" style="text;html=1;align=center;verticalAlign=middle;resizable=0;points=[];autosize=1;strokeColor=none;fillColor=none;" parent="GgJrNzVZVlJhMmaJBiFv-389" vertex="1">
          <mxGeometry x="119.75" y="1.5" width="100" height="40" as="geometry" />
        </mxCell>
        <mxCell id="GgJrNzVZVlJhMmaJBiFv-391" value="&lt;font color=&quot;#014e66&quot; style=&quot;font-size: 24px;&quot;&gt;PK&lt;/font&gt;" style="text;html=1;align=center;verticalAlign=middle;whiteSpace=wrap;rounded=0;" parent="GgJrNzVZVlJhMmaJBiFv-389" vertex="1">
          <mxGeometry x="-22.7" y="6.5" width="97.2" height="30" as="geometry" />
        </mxCell>
        <mxCell id="GgJrNzVZVlJhMmaJBiFv-393" value="" style="group" parent="1" vertex="1" connectable="0">
          <mxGeometry x="550" y="1760" width="270" height="43" as="geometry" />
        </mxCell>
        <mxCell id="GgJrNzVZVlJhMmaJBiFv-394" value="" style="swimlane;startSize=0;" parent="GgJrNzVZVlJhMmaJBiFv-393" vertex="1">
          <mxGeometry width="270.00000000000006" height="41.5" as="geometry">
            <mxRectangle width="50" height="40" as="alternateBounds" />
          </mxGeometry>
        </mxCell>
        <mxCell id="GgJrNzVZVlJhMmaJBiFv-395" value="&lt;font style=&quot;font-size: 24px;&quot;&gt;numero&lt;/font&gt;" style="text;html=1;align=center;verticalAlign=middle;resizable=0;points=[];autosize=1;strokeColor=none;fillColor=none;" parent="GgJrNzVZVlJhMmaJBiFv-394" vertex="1">
          <mxGeometry x="127.04545454545455" y="1.5" width="100" height="40" as="geometry" />
        </mxCell>
        <mxCell id="GgJrNzVZVlJhMmaJBiFv-396" value="&lt;font color=&quot;#014e66&quot; style=&quot;font-size: 24px;&quot;&gt;PK&lt;/font&gt;" style="text;html=1;align=center;verticalAlign=middle;whiteSpace=wrap;rounded=0;" parent="GgJrNzVZVlJhMmaJBiFv-394" vertex="1">
          <mxGeometry x="-21.6" y="6.5" width="97.2" height="30" as="geometry" />
        </mxCell>
        <mxCell id="GgJrNzVZVlJhMmaJBiFv-398" value="&lt;font color=&quot;#ff3333&quot; style=&quot;font-size: 24px;&quot;&gt;FK&lt;/font&gt;" style="text;html=1;align=center;verticalAlign=middle;whiteSpace=wrap;rounded=0;" parent="1" vertex="1">
          <mxGeometry x="830" y="1050" width="60" height="30" as="geometry" />
        </mxCell>
        <mxCell id="GgJrNzVZVlJhMmaJBiFv-399" value="&lt;h2&gt;&lt;font color=&quot;#d48383&quot;&gt;NOT NULL&lt;/font&gt;&lt;/h2&gt;" style="text;html=1;align=center;verticalAlign=middle;whiteSpace=wrap;rounded=0;" parent="1" vertex="1">
          <mxGeometry x="840" y="1086.5" width="200" height="30" as="geometry" />
        </mxCell>
        <mxCell id="GgJrNzVZVlJhMmaJBiFv-400" value="&lt;font color=&quot;#ff3333&quot; style=&quot;font-size: 24px;&quot;&gt;FK&lt;/font&gt;" style="text;html=1;align=center;verticalAlign=middle;whiteSpace=wrap;rounded=0;" parent="1" vertex="1">
          <mxGeometry x="631" y="1050" width="60" height="30" as="geometry" />
        </mxCell>
        <mxCell id="GgJrNzVZVlJhMmaJBiFv-401" value="&lt;h2&gt;&lt;font color=&quot;#d48383&quot;&gt;NOT NULL&lt;/font&gt;&lt;/h2&gt;" style="text;html=1;align=center;verticalAlign=middle;whiteSpace=wrap;rounded=0;" parent="1" vertex="1">
          <mxGeometry x="641" y="1086.5" width="200" height="30" as="geometry" />
        </mxCell>
        <mxCell id="GgJrNzVZVlJhMmaJBiFv-408" value="&lt;font color=&quot;#ff3333&quot; style=&quot;font-size: 24px;&quot;&gt;FK&lt;/font&gt;" style="text;html=1;align=center;verticalAlign=middle;whiteSpace=wrap;rounded=0;" parent="1" vertex="1">
          <mxGeometry x="431" y="1050" width="60" height="30" as="geometry" />
        </mxCell>
        <mxCell id="GgJrNzVZVlJhMmaJBiFv-409" value="&lt;h2&gt;&lt;font color=&quot;#d48383&quot;&gt;NOT NULL&lt;/font&gt;&lt;/h2&gt;" style="text;html=1;align=center;verticalAlign=middle;whiteSpace=wrap;rounded=0;" parent="1" vertex="1">
          <mxGeometry x="441" y="1086.5" width="200" height="30" as="geometry" />
        </mxCell>
        <mxCell id="GgJrNzVZVlJhMmaJBiFv-416" value="&lt;font color=&quot;#014e66&quot; style=&quot;font-size: 24px;&quot;&gt;PK&lt;/font&gt;" style="text;html=1;align=center;verticalAlign=middle;whiteSpace=wrap;rounded=0;" parent="1" vertex="1">
          <mxGeometry x="312" y="1287" width="60" height="30" as="geometry" />
        </mxCell>
        <mxCell id="GgJrNzVZVlJhMmaJBiFv-417" value="&lt;h2&gt;&lt;font color=&quot;#d48383&quot;&gt;NOT NULL&lt;/font&gt;&lt;/h2&gt;" style="text;html=1;align=center;verticalAlign=middle;whiteSpace=wrap;rounded=0;" parent="1" vertex="1">
          <mxGeometry x="660" y="723" width="200" height="30" as="geometry" />
        </mxCell>
        <mxCell id="DOF1BjW3caJsl0741FP9-4" value="" style="group" vertex="1" connectable="0" parent="1">
          <mxGeometry x="440" y="320" width="200" height="43" as="geometry" />
        </mxCell>
        <mxCell id="DOF1BjW3caJsl0741FP9-5" value="" style="swimlane;startSize=0;" vertex="1" parent="DOF1BjW3caJsl0741FP9-4">
          <mxGeometry width="200" height="41.5" as="geometry">
            <mxRectangle width="50" height="40" as="alternateBounds" />
          </mxGeometry>
        </mxCell>
        <mxCell id="DOF1BjW3caJsl0741FP9-6" value="&lt;span style=&quot;font-size: 24px;&quot;&gt;email&lt;/span&gt;" style="text;html=1;align=center;verticalAlign=middle;resizable=0;points=[];autosize=1;strokeColor=none;fillColor=none;" vertex="1" parent="DOF1BjW3caJsl0741FP9-5">
          <mxGeometry x="60" y="1.5" width="80" height="40" as="geometry" />
        </mxCell>
        <mxCell id="DOF1BjW3caJsl0741FP9-7" value="" style="group" vertex="1" connectable="0" parent="1">
          <mxGeometry x="640" y="320" width="200" height="43" as="geometry" />
        </mxCell>
        <mxCell id="DOF1BjW3caJsl0741FP9-8" value="" style="swimlane;startSize=0;" vertex="1" parent="DOF1BjW3caJsl0741FP9-7">
          <mxGeometry width="200" height="41.5" as="geometry">
            <mxRectangle width="50" height="40" as="alternateBounds" />
          </mxGeometry>
        </mxCell>
        <mxCell id="DOF1BjW3caJsl0741FP9-9" value="&lt;span style=&quot;font-size: 24px;&quot;&gt;endereco&lt;/span&gt;" style="text;html=1;align=center;verticalAlign=middle;resizable=0;points=[];autosize=1;strokeColor=none;fillColor=none;" vertex="1" parent="DOF1BjW3caJsl0741FP9-8">
          <mxGeometry x="40" y="1.5" width="120" height="40" as="geometry" />
        </mxCell>
        <mxCell id="DOF1BjW3caJsl0741FP9-29" value="" style="group" vertex="1" connectable="0" parent="1">
          <mxGeometry x="1040" y="560" width="200" height="43" as="geometry" />
        </mxCell>
        <mxCell id="DOF1BjW3caJsl0741FP9-30" value="" style="swimlane;startSize=0;" vertex="1" parent="DOF1BjW3caJsl0741FP9-29">
          <mxGeometry width="200" height="41.5" as="geometry" />
        </mxCell>
        <mxCell id="DOF1BjW3caJsl0741FP9-31" value="&lt;span style=&quot;font-size: 24px;&quot;&gt;salario&lt;/span&gt;" style="text;html=1;align=center;verticalAlign=middle;resizable=0;points=[];autosize=1;strokeColor=none;fillColor=none;" vertex="1" parent="DOF1BjW3caJsl0741FP9-30">
          <mxGeometry x="55" y="1.5" width="90" height="40" as="geometry" />
        </mxCell>
        <mxCell id="DOF1BjW3caJsl0741FP9-32" value="" style="group" vertex="1" connectable="0" parent="1">
          <mxGeometry x="1241" y="560" width="200" height="43" as="geometry" />
        </mxCell>
        <mxCell id="DOF1BjW3caJsl0741FP9-33" value="" style="swimlane;startSize=0;" vertex="1" parent="DOF1BjW3caJsl0741FP9-32">
          <mxGeometry width="200" height="41.5" as="geometry" />
        </mxCell>
        <mxCell id="DOF1BjW3caJsl0741FP9-34" value="&lt;span style=&quot;font-size: 24px;&quot;&gt;link_lattes&lt;/span&gt;" style="text;html=1;align=center;verticalAlign=middle;resizable=0;points=[];autosize=1;strokeColor=none;fillColor=none;" vertex="1" parent="DOF1BjW3caJsl0741FP9-33">
          <mxGeometry x="35" y="1.5" width="130" height="40" as="geometry" />
        </mxCell>
        <mxCell id="DOF1BjW3caJsl0741FP9-35" value="" style="group" vertex="1" connectable="0" parent="1">
          <mxGeometry x="1441" y="559.5" width="200" height="43" as="geometry" />
        </mxCell>
        <mxCell id="DOF1BjW3caJsl0741FP9-36" value="" style="swimlane;startSize=0;" vertex="1" parent="DOF1BjW3caJsl0741FP9-35">
          <mxGeometry width="200" height="41.5" as="geometry" />
        </mxCell>
        <mxCell id="DOF1BjW3caJsl0741FP9-37" value="&lt;span style=&quot;font-size: 24px;&quot;&gt;ddd&lt;/span&gt;" style="text;html=1;align=center;verticalAlign=middle;resizable=0;points=[];autosize=1;strokeColor=none;fillColor=none;" vertex="1" parent="DOF1BjW3caJsl0741FP9-36">
          <mxGeometry x="70" y="1.5" width="60" height="40" as="geometry" />
        </mxCell>
        <mxCell id="DOF1BjW3caJsl0741FP9-38" value="" style="group" vertex="1" connectable="0" parent="1">
          <mxGeometry x="1641" y="559.75" width="200" height="43" as="geometry" />
        </mxCell>
        <mxCell id="DOF1BjW3caJsl0741FP9-39" value="" style="swimlane;startSize=0;" vertex="1" parent="DOF1BjW3caJsl0741FP9-38">
          <mxGeometry width="200" height="41.5" as="geometry" />
        </mxCell>
        <mxCell id="DOF1BjW3caJsl0741FP9-40" value="&lt;span style=&quot;font-size: 24px;&quot;&gt;numero&lt;/span&gt;" style="text;html=1;align=center;verticalAlign=middle;resizable=0;points=[];autosize=1;strokeColor=none;fillColor=none;" vertex="1" parent="DOF1BjW3caJsl0741FP9-39">
          <mxGeometry x="50" y="1.5" width="100" height="40" as="geometry" />
        </mxCell>
        <mxCell id="DOF1BjW3caJsl0741FP9-53" value="" style="group" vertex="1" connectable="0" parent="1">
          <mxGeometry x="1041" y="919.75" width="200" height="43" as="geometry" />
        </mxCell>
        <mxCell id="DOF1BjW3caJsl0741FP9-54" value="" style="swimlane;startSize=0;" vertex="1" parent="DOF1BjW3caJsl0741FP9-53">
          <mxGeometry width="200" height="41.5" as="geometry">
            <mxRectangle width="50" height="40" as="alternateBounds" />
          </mxGeometry>
        </mxCell>
        <mxCell id="DOF1BjW3caJsl0741FP9-55" value="&lt;font style=&quot;font-size: 24px;&quot;&gt;salario&lt;/font&gt;" style="text;html=1;align=center;verticalAlign=middle;resizable=0;points=[];autosize=1;strokeColor=none;fillColor=none;" vertex="1" parent="DOF1BjW3caJsl0741FP9-54">
          <mxGeometry x="55" y="1.5" width="90" height="40" as="geometry" />
        </mxCell>
        <mxCell id="DOF1BjW3caJsl0741FP9-65" value="&lt;font color=&quot;#ff3333&quot; style=&quot;font-size: 24px;&quot;&gt;FK&lt;/font&gt;" style="text;html=1;align=center;verticalAlign=middle;whiteSpace=wrap;rounded=0;" vertex="1" parent="1">
          <mxGeometry x="627.54" y="447" width="60" height="30" as="geometry" />
        </mxCell>
        <mxCell id="DOF1BjW3caJsl0741FP9-66" value="&lt;h2&gt;&lt;font color=&quot;#d48383&quot;&gt;NOT NULL&lt;/font&gt;&lt;/h2&gt;" style="text;html=1;align=center;verticalAlign=middle;whiteSpace=wrap;rounded=0;" vertex="1" parent="1">
          <mxGeometry x="640" y="481.5" width="280" height="30" as="geometry" />
        </mxCell>
      </root>
    </mxGraphModel>
  </diagram>
</mxfile>
